<svg xmlns="http://www.w3.org/2000/svg" width="62.404" height="62.404" viewBox="0 0 62.404 62.404"><defs><style>.a{fill:transparent;}.b{fill:#fff;}</style></defs><g transform="translate(-29.953 -9.376)"><g transform="translate(29.953 9.376)"><rect class="a" width="62.404" height="62.404" rx="3.81"/><path class="b" d="M55.266,91.41a.322.322,0,0,1,0,.067,2.978,2.978,0,0,0-.156.579l1.26,1.26a3.6,3.6,0,0,0,.527-.046,19.433,19.433,0,0,1,26.908.035l.072.02a1.416,1.416,0,0,0,.388.017l1.411-1.411c-.029-.1-.052-.209-.081-.313A21.89,21.89,0,0,0,55.266,91.41Z" transform="translate(-39.142 -60.663)"/><path class="b" d="M67.5,107.02c0,.238-.017.478,0,.713l11.6,11.6,11.262-11.251a2.373,2.373,0,0,0,.232-.556,1.04,1.04,0,0,0-.206-.832,16.956,16.956,0,0,0-22.892.322Z" transform="translate(-47.938 -72.738)"/><path class="b" d="M43.71,76.976a2.1,2.1,0,0,0,.064.481L44.82,78.5c.116.014.238.023.353.029a24.376,24.376,0,0,1,34.082-.023,2.2,2.2,0,0,0,.417-.043l1.136-1.136a.7.7,0,0,0,0-.29,26.485,26.485,0,0,0-37.1-.064Z" transform="translate(-31.045 -49.311)"/><rect class="a" width="62.404" height="62.404" rx="3.81"/><path class="b" d="M55.266,91.41a.322.322,0,0,1,0,.067,2.978,2.978,0,0,0-.156.579l1.26,1.26a3.6,3.6,0,0,0,.527-.046,19.433,19.433,0,0,1,26.908.035l.072.02a1.416,1.416,0,0,0,.388.017l1.411-1.411c-.029-.1-.052-.209-.081-.313A21.89,21.89,0,0,0,55.266,91.41Z" transform="translate(-39.142 -60.663)"/><path class="b" d="M67.5,107.02c0,.238-.017.478,0,.713l11.6,11.6,11.262-11.251a2.373,2.373,0,0,0,.232-.556,1.04,1.04,0,0,0-.206-.832,16.956,16.956,0,0,0-22.892.322Z" transform="translate(-47.938 -72.738)"/><path class="b" d="M43.71,76.976a2.1,2.1,0,0,0,.064.481L44.82,78.5c.116.014.238.023.353.029a24.376,24.376,0,0,1,34.082-.023,2.2,2.2,0,0,0,.417-.043l1.136-1.136a.7.7,0,0,0,0-.29,26.485,26.485,0,0,0-37.1-.064Z" transform="translate(-31.045 -49.311)"/></g></g></svg>